/* XPM */ 
static const char * asterisk_xpm[] = {
"16 16 94 2",
"  	c None",
"! 	c black",
"# 	c #F58922",
"$ 	c #F38721",
"% 	c #FFE2C7",
"& 	c #F5A253",
"' 	c #F18D2D",
"( 	c #F0851F",
") 	c #FFC289",
"* 	c #F18C2B",
"+ 	c #F5A355",
", 	c #F3A255",
"- 	c #FED4AC",
". 	c #FBCC9E",
"0 	c #EF8A2B",
"1 	c #ED821D",
"2 	c #FEBF82",
"3 	c #EE8929",
"4 	c #FBCC9D",
"5 	c #FED5AD",
"6 	c #EB8728",
"7 	c #FAB26D",
"8 	c #FDC087",
"9 	c #FACA9B",
": 	c #FDBA7A",
"; 	c #EB8626",
"< 	c #FAC99A",
"= 	c #FDC188",
"> 	c #FAB16C",
"? 	c #E78222",
"@ 	c #F8AC63",
"A 	c #FCBC7E",
"B 	c #F9C796",
"C 	c #FCB571",
"D 	c #F8C695",
"E 	c #FCBD7F",
"F 	c #F9AD64",
"G 	c #E07815",
"H 	c #E37E1E",
"I 	c #F7A75A",
"J 	c #FBB775",
"K 	c #FBB067",
"L 	c #FBB876",
"M 	c #F7A85B",
"N 	c #DC7512",
"O 	c #FDD5AE",
"P 	c #FCD1A7",
"Q 	c #FAB16A",
"R 	c #FAAA5D",
"S 	c #D77110",
"T 	c #FAA453",
"U 	c #D36D0D",
"V 	c #D67111",
"W 	c #F2953D",
"X 	c #F99E49",
"Y 	c #F2953E",
"Z 	c #D67112",
"[ 	c #D17115",
"] 	c #F2B77E",
"^ 	c #F9A353",
"_ 	c #F29338",
"` 	c #F8993F",
"a 	c #F19237",
"b 	c #F9A351",
"c 	c #F3B77E",
"d 	c #D27217",
"e 	c #CE6E13",
"f 	c #F2B479",
"g 	c #F89F4A",
"h 	c #F18E30",
"i 	c #CF6D0F",
"j 	c #F79436",
"k 	c #CE6C0D",
"l 	c #F08D2F",
"m 	c #F89E49",
"n 	c #CE7015",
"o 	c #D98638",
"p 	c #F79B43",
"q 	c #F08A29",
"r 	c #CB690B",
"s 	c #C66305",
"t 	c #F6902E",
"u 	c #CA680A",
"v 	c #EE8827",
"w 	c #F79A42",
"x 	c #D88535",
"y 	c #D67211",
"z 	c #C96709",
"{ 	c #C36103",
"| 	c #F58C27",
"} 	c #C76608",
"~ 	c #D57010",
" !	c #C05E01",
"!!	c #BE5D00",
"              # #               ",
"            $ % % $             ",
"      & '   ( ) ) (   * +       ",
"    , - . 0 1 2 2 1 3 4 5 ,     ",
"    6 7 8 9 6 : : ; < = > 6     ",
"      ? @ A B C C D E F ?       ",
"  G G G H I J K K L M H G G G   ",
"N O O O P Q R R R R Q P O O O N ",
"S T T T T T T T T T T T T T T S ",
"  U U U V W X X X X Y Z U U U   ",
"      [ ] ^ _ ` ` a b c d       ",
"    e f g h i j j k l m f n     ",
"    o p q r s t t s u v w x     ",
"      y z   { | | {   } ~       ",
"             !# #  !            ",
"              !!!!              "};