/* XPM */ 
static const char * film_xpm[] = {
"16 16 66 1",
" 	c None",
"!	c black",
"#	c #4E4E4E",
"$	c #4C4C4C",
"%	c #51AFEC",
"&	c #57B2ED",
"'	c #5FB3EE",
"(	c #68B7EF",
")	c #6FBBF0",
"*	c #77BCF1",
"+	c #7FC0F5",
",	c #83C2F7",
"-	c #4A4A4A",
".	c #C6C6C6",
"0	c #58B1EC",
"1	c #5BB1ED",
"2	c #5FB1EF",
"3	c #65B4EF",
"4	c #6DB8F1",
"5	c #75BDF1",
"6	c #79BFF3",
"7	c #78BFF5",
"8	c #474747",
"9	c #65B4EB",
":	c #68B6EC",
";	c #6AB6ED",
"<	c #6DB6EC",
"=	c #71BAF2",
">	c #78BDF1",
"?	c #7FC2F3",
"@	c #7EC1F4",
"A	c #434343",
"B	c #89C2E9",
"C	c #97C7EC",
"D	c #A0D0F3",
"E	c #ACD4F5",
"F	c #B3D8F6",
"G	c #ADD7F3",
"H	c #B7DCF6",
"I	c #BFDEF9",
"J	c #3F3F3F",
"K	c #8CB6D8",
"L	c #92B9D9",
"M	c #90BCDE",
"N	c #8CBDE2",
"O	c #8FBEE2",
"P	c #8FBFE2",
"Q	c #91C0E2",
"R	c #93C0E3",
"S	c #3C3C3C",
"T	c #1A80BC",
"U	c #137BB8",
"V	c #0B74B3",
"W	c #0670AF",
"X	c #066EAE",
"Y	c #0670B0",
"Z	c #0474B0",
"[	c #0878B1",
"]	c #383838",
"^	c #333333",
"_	c #2F2F2F",
"`	c #2C2C2C",
"a	c #282828",
"b	c #242424",
"c	c #212121",
"d	c #1F1F1F",
"                ",
" # ########## # ",
" $$$%&'()*+,$$$ ",
" -.-01234567-.- ",
" 8889:;<=>?@888 ",
" A.ABCDEFGHIA.A ",
" JJJKLMNOPQRJJJ ",
" S.STUVWXYZ[S.S ",
" ]]]]]]]]]]]]]] ",
" ^.^%&'()*+,^.^ ",
" ___01234567___ ",
" `.`9:;<=>?@`.` ",
" aaaBCDEFGHIaaa ",
" b.bKLMNOPQRb.b ",
" cccTUVWXYZ[ccc ",
" d dddddddddd d "};