/* XPM */ 
static const char * free_xpm[] = {
"16 16 16 1",
" 	c None",
"!	c white",
"#	c black",
"$	c #FFF29B",
"%	c #808080",
"&	c #E5E5E5",
"'	c #A0A0A0",
"(	c #FBDC00",
")	c #FFEB59",
"*	c #BCBCBC",
"+	c #C0C0C0",
",	c #6A6A6A",
"-	c #DDDDDD",
".	c #BBA400",
"0	c #A6A6A6",
"1	c #CDCDCD",
"!!!!!!!!!!!!!!!!",
"!#####!!!!!#####",
"!#$$#%&&!!!'#$$#",
"!#(()#&&!!!#)((#",
"!##(()#&!!#)((##",
"!#%#(($#*#)((#*#",
"!!+,#(((#(((#*+-",
"!!&&,#(()).#*+-!",
"!!!&&*#(((#0+-!!",
"!!!&&#((((.#-&!!",
"!!!!#)(.#.()#!!!",
"!#'#)((#0#(()#'#",
"!##)((#*++#(()##",
"!#)((#*+-&'#(()#",
"!#((#*1-&!&'#((#",
"!#####-&!!&#####"};