/* XPM */
static const char *frontView_xpm[]={
"16 16 234 2",
"aX c #000000",
"bz c #00091b",
"aF c #000c1c",
"at c #020202",
"aG c #030303",
"aH c #060606",
"#2 c #090909",
"aI c #0b0b0b",
".9 c #1a2730",
"aJ c #1b1b1b",
"af c #1f1f1f",
"aE c #21598a",
"#b c #22384d",
"ag c #22465e",
"#K c #234477",
".4 c #242424",
".Y c #243235",
".V c #26302f",
"aU c #265992",
"aq c #265c88",
"#t c #274780",
"#z c #282828",
"#3 c #284b5e",
"bl c #28508e",
".l c #292929",
"#N c #2a2a2a",
"bk c #2a5eb1",
".H c #2b3131",
"a9 c #2b5995",
"aD c #2b74b8",
"#p c #2c4878",
"#q c #2c4a7e",
"ab c #2c6087",
"aT c #2c70bb",
"#l c #2d2d2d",
"#o c #2d4470",
"#u c #2e4e87",
"bJ c #2e518b",
"bG c #2e5282",
"bH c #2e5387",
"bI c #2e538a",
"a8 c #2e6bbc",
"bK c #2f4f8c",
"bF c #2f517e",
".D c #303030",
"#h c #30353b",
"bb c #30526e",
"aK c #305572",
"#Y c #305d86",
"ap c #307bb5",
"bE c #315177",
"#r c #315288",
"bx c #315da8",
".j c #333134",
"#v c #33538c",
"by c #35558e",
"au c #355874",
"aa c #357baf",
".t c #36353a",
".7 c #363636",
"bL c #364c7b",
"bo c #37556f",
"aZ c #375a78",
"bD c #385573",
"bj c #386fc1",
".f c #3a3241",
".S c #3a3a3a",
"#A c #3a4d77",
"bw c #3a66b1",
".d c #3b3746",
".s c #3b3a3f",
".i c #3c343f",
".n c #3c3c3c",
".Q c #3e3e3e",
"#O c #3e5a72",
".e c #3f3947",
"bv c #3f6eb6",
"#n c #40527a",
"a7 c #407fcf",
"#w c #415a83",
".g c #423745",
".C c #434343",
"aS c #4388d3",
"bC c #445a71",
"bi c #447bcb",
".h c #453a48",
"bu c #4574b8",
"aC c #4792d5",
".m c #484848",
"#m c #485578",
"#X c #4885bc",
"bt c #4979b9",
"#s c #4a6aa3",
"a6 c #4a8cda",
".k c #4c4c4c",
"bh c #4c86d0",
"aR c #4d95df",
"a5 c #4e90da",
"aQ c #4f98dd",
"ao c #4f9ad4",
"bs c #507eb9",
"br c #5482b6",
"bg c #558ed5",
"aP c #559cde",
"a4 c #5696dd",
"aB c #56a1e2",
"aA c #59a5e3",
"a# c #5aa0d3",
"an c #5ea9e2",
"am c #60abe2",
"az c #60abe5",
"bf c #6198d8",
"a3 c #62a2e0",
"aO c #64a8e5",
"a. c #66acdf",
"al c #67b0e5",
"be c #6ca0d9",
"#J c #6d9ade",
"a2 c #6faae2",
"bq c #719ac6",
"ay c #73baf0",
"bd c #75a5d5",
"aN c #75b4ea",
"bA c #787878",
"#9 c #7abeef",
"ak c #7ac0f1",
"#F c #7ca8e9",
"#H c #7ca9ec",
"#I c #7daaee",
".R c #7f7f7f",
"#x c #828999",
"#8 c #82c5f2",
"bp c #83a7cb",
"#G c #84b1f4",
"#W c #84c1f7",
"#7 c #84c3ee",
"#. c #8698a4",
"ax c #86c8fa",
"bM c #878e9e",
".W c #889494",
"#V c #89c5fb",
".I c #8b9191",
"a1 c #8fc5f4",
"aw c #8fc8f3",
"aj c #8fcffb",
"bn c #929292",
".5 c #939393",
"aM c #96cefd",
"aY c #999999",
"#U c #9ad6ff",
"#i c #9b9b9b",
"#D c #9cc0fa",
"bc c #9cc6ec",
"#6 c #9dd7fd",
"ba c #9f9f9f",
"aL c #a0d0f6",
"ai c #a1d9fe",
"a0 c #a2cff6",
"#T c #a5ddff",
"#C c #a6c5fb",
"#5 c #a7d9fa",
"#E c #a8d0ff",
"#S c #ade1ff",
"#B c #aec9f8",
"#R c #b0e1ff",
"av c #b3e3ff",
"#P c #c1e5ff",
"ah c #c2f1ff",
"#Q c #c3efff",
"#4 c #c5f1ff",
"#c c #c7e0f6",
"b. c #d0dff4",
"#e c #d5ebff",
"#g c #d7e9f7",
".E c #dcddd7",
"ar c #dcedfd",
"ac c #dceefc",
"#y c #dedede",
"#M c #dfdfdf",
"#Z c #dfeffe",
"#0 c #e0e0e0",
".2 c #e0ebed",
"## c #e0f3ff",
".8 c #e1eaef",
"#a c #e2f9ff",
".Z c #e3f1f4",
"aV c #e3f4ff",
"#f c #e4faff",
".L c #e6e8e7",
"#L c #e7f2ff",
".q c #e8e9ed",
"#d c #e8feff",
"ad c #e9e9e9",
"ae c #eaeaea",
".F c #ebf0ec",
"bm c #ebf7ff",
".0 c #ecfafb",
".c c #ede9f8",
".u c #edebf0",
".N c #ededed",
".3 c #edeef0",
".U c #edf6f1",
"#1 c #eeeeee",
".K c #eef2f1",
".X c #eefcfd",
".B c #efefef",
".# c #f0edfe",
"as c #f0f0f0",
".v c #f1eff2",
"#k c #f1f1f1",
".r c #f1f2f6",
".a c #f2efff",
".M c #f2f2f2",
".P c #f3f3f3",
".z c #f4f2f3",
".A c #f4f4f4",
"#j c #f6f6f6",
".1 c #f6ffff",
"aW c #f7f7f7",
".6 c #f8f8f8",
".w c #f9f5f6",
".b c #f9f6ff",
".p c #f9f8fd",
".T c #f9fef7",
".x c #faf4f6",
".G c #fafefd",
"b# c #fbfbfb",
".o c #fbfbfd",
".J c #fcffff",
".y c #fdf7f9",
".O c #fdfdfd",
"bN c #fefefe",
"Qt c #fffdff",
"bB c #ffffff",
"Qt.#.a.b.c.d.e.f.g.h.i.j.k.l.m.n",
".o.p.q.r.s.t.u.v.w.x.y.z.A.B.C.D",
".E.F.G.H.I.H.J.K.L.M.N.O.P.Q.R.S",
".T.U.V.W.X.Y.Z.0.1.2.1.3.4.5.6.7",
".8.9#.###a#b#c#d#e#f#g#h#i#j#k#l",
"#m#n#o#p#q#r#s#t#u#v#w#x#y.M.A#z",
"#A#B#C#D#E#F#G#H#I#J#K#L#k#j#M#N",
"#O#P#Q#R#S#T#U#V#W#X#Y#Z#0.M#1#2",
"#3#4#5#6#7#8#9a.a#aaabac.Badaeaf",
"agahaiajakalamanaoapaqaras.Nasat",
"auavawaxayazaAaBaCaDaEaFaGaHaIaJ",
"aKaLaMaNaOaPaQaRaSaTaUaV#jaWaXaY",
"aZa0a1a2a3a4a5a6a7a8a9b.b#aXba#j",
"bbbcbdbebfbgbhbibjbkblbmaIbn#y.P",
"bobpbqbrbsbtbubvbwbxbybzbAbB.6ae",
"bCbDbEbFbGbHbIbJbKbKbLbMbN.A#1bB"};
