/* XPM */
static const char * play_xpm[] = {
"16 16 39 1",
" 	c None",
".	c #454B2F",
"+	c #5F6D2E",
"@	c #3E4235",
"#	c #4F572F",
"$	c #9CBE26",
"%	c #7C942A",
"&	c #586232",
"*	c #9DBF26",
"=	c #A3C725",
"-	c #93B227",
";	c #67782D",
">	c #434635",
",	c #A4C826",
"'	c #7F9729",
")	c #5C6733",
"!	c #97B727",
"~	c #697B2C",
"{	c #464A35",
"]	c #819A29",
"^	c #5D6931",
"/	c #758B2A",
"(	c #454A33",
"_	c #9ABB26",
":	c #6B7D2C",
"<	c #434833",
"[	c #85A029",
"}	c #5D6A30",
"|	c #383838",
"1	c #9FC226",
"2	c #72862B",
"3	c #4D5533",
"4	c #8DA928",
"5	c #61702E",
"6	c #373737",
"7	c #788E2A",
"8	c #525B32",
"9	c #606D2F",
"0	c #3D4035",
"                ",
"                ",
"    .+@         ",
"    #$%&        ",
"    #*=-;>      ",
"    #*,,=')     ",
"    #*,,,,!~{   ",
"    #*,,,,,=]^  ",
"    #*,,,,,,=/( ",
"    #*,,,,,_:<  ",
"    #*,,,=[}|   ",
"    #*,,123     ",
"    #*=456      ",
"    #$78        ",
"    .90         ",
"                "};
