/* XPM */ 
static const char * prism_xpm[] = {
"16 16 39 1",
" 	c None",
"!	c #FDFDFD",
"#	c white",
"$	c black",
"%	c #FEFEFE",
"&	c #FFF4AB",
"'	c #FFED74",
"(	c #FFEA5A",
")	c #FFE954",
"*	c #FFE952",
"+	c #F8F8F8",
",	c #FFF4A8",
"-	c #FFE84B",
".	c #FFE118",
"0	c #FFDF0A",
"1	c #FFDF08",
"2	c #FFE119",
"3	c #FFDE02",
"4	c #FFDE00",
"5	c #FFEB61",
"6	c #FFE00E",
"7	c #FFDE01",
"8	c #606060",
"9	c #C4C4C4",
":	c #353535",
";	c #757575",
"<	c #DEDEDE",
"=	c #AAAAAA",
">	c #747474",
"?	c #585858",
"@	c #505050",
"A	c #F4F4F4",
"B	c #DFDFDF",
"C	c #B4B4B4",
"D	c #B0B0B0",
"E	c #AFAFAF",
"F	c #F1F1F1",
"G	c #ECECEC",
"H	c #EBEBEB",
"!!!!!!!!!!!!!!!!",
"################",
"!!!!!!!!!!!!!!!!",
"!!!!!!!!!!!!!!!!",
"!!$$$$$$$$$$$$%%",
"!$&'()******)($+",
"$,-.0111111110.$",
"$'2344444444443$",
"$56744444444447$",
"!$234444444444$8",
"!9$$$$$$$$$$$$:;",
"!<=>?@@@@@@@@?>=",
"!AB9CDEEEEEEDC9B",
"!!+FGHHHHHHHHGF+",
"!!%%!!!!!!!!!!%%",
"!!!!!!!!!!!!!!!!"};