/* XPM */ 
static const char * revol_xpm[] = {
"16 16 68 1",
" 	c None",
"!	c white",
"#	c #F6F6F6",
"$	c #EEEEEE",
"%	c #EAEAEA",
"&	c #E9E9E9",
"'	c #ECECEC",
"(	c #EFEFEF",
")	c #D7D7D7",
"*	c #EAE2AA",
"+	c #EDE08D",
",	c #F8E982",
"-	c #F7E780",
".	c #E2D582",
"0	c #CDC48D",
"1	c #A7A17F",
"2	c #BEBEBE",
"3	c #F5E78A",
"4	c #FFED76",
"5	c #FFE84B",
"6	c #FFE327",
"7	c #FFDF0B",
"8	c #E3D158",
"9	c #93883D",
":	c #8E8E8E",
";	c #FFEC6C",
"<	c #E7CF2F",
"=	c #B59E00",
">	c #907D00",
"?	c #E1C400",
"@	c #FFDE00",
"A	c #DEC734",
"B	c #3E370A",
"C	c #939393",
"D	c #FFEE7B",
"E	c #E7D032",
"F	c #837200",
"G	c #6B5D00",
"H	c #806F00",
"I	c #262626",
"J	c #CBCBCB",
"K	c #DFDFDF",
"L	c #EADC7C",
"M	c #FFE953",
"N	c #7F7F7F",
"O	c #C0A700",
"P	c black",
"Q	c #F8E880",
"R	c #FFE42F",
"S	c #EDCE00",
"T	c #3F3F3F",
"U	c #F5E46E",
"V	c #FFE013",
"W	c #121212",
"X	c #D2BF40",
"Y	c #FFDE02",
"Z	c #A09028",
"[	c #FFE00F",
"]	c #8B8457",
"^	c #D6BB09",
"_	c #D5B900",
"`	c #342D00",
"a	c #BDBDBD",
"b	c #7C6F15",
"c	c #675A00",
"d	c #2A2A2A",
"e	c #0E0E0E",
"f	c #989898",
"!!!#$%&&%'#!!!!!",
"!!()*+,-.012!!!!",
"!$)345677689:!!!",
"#)3;<=>>=?@ABC!!",
"&)DEFGGGGF?@HIJ!",
"KLM=GNJ(JN=@OPN!",
")QR>GJ!!!J>@SPT!",
")UV>G(!!!(>@SPW!",
"KXY=GJ!!!J=@OPW!",
"&Z[?FNJ(JN?@HPT!",
"#]^@?=>>=?@_`PN!",
"!ab_@@@@@@_cPdJ!",
"!!:BHOSSOH`Pef!!",
"!!!CIPPPPPPdf!!!",
"!!!!JNTWWTNJ!!!!",
"!!!!!!!!!!!!!!!!"};