/* XPM */
static const char *rightSideView_xpm[]={
"16 16 20 1",
"i c #000000",
"j c #000033",
"# c #333333",
"b c #333366",
"c c #336666",
"k c #336699",
"a c #663333",
"o c #666699",
"r c #669999",
"f c #6699cc",
"n c #6699ff",
"m c #66ccff",
"e c #999999",
"q c #9999cc",
"g c #99cccc",
"h c #99ccff",
"l c #99ffff",
"d c #ccffff",
"p c #ffffcc",
". c #ffffff",
".....###a####bbc",
"....##.......dcc",
"...#e#......dcfc",
"..#e.#.....dcfgb",
".#e..#.....cfhfc",
"i########jchhhfk",
"#....#....bhlmfc",
"i....#...dkhhmfc",
"#....i....bhhnfc",
"i....i...dchhnfk",
"i....iiiijchhfob",
"i...iep...cffokq",
"i..ie....dcqokc.",
"i.ie......boco..",
"iie.......ccr.dd",
"iiiiiiiiiiie...."};
