/* XPM */
static const char * simulate_xpm[] = {
"16 16 56 1",
" 	c None",
".	c #4B5032",
"+	c #606E2E",
"@	c #4D5533",
"#	c #8BA728",
"$	c #697A30",
"%	c #839D29",
"&	c #95B527",
"*	c #6A7B2B",
"=	c #798F29",
"-	c #A3C726",
";	c #8EAB28",
">	c #5E6B31",
",	c #485130",
"'	c #4D562F",
")	c #4D552F",
"!	c #4C5431",
"~	c #7A912B",
"{	c #A4C725",
"]	c #A4C826",
"^	c #87A229",
"/	c #5E6A2E",
"(	c #79902A",
"_	c #99BA27",
":	c #A0C326",
"<	c #809829",
"[	c #505834",
"}	c #849D29",
"|	c #798F2A",
"1	c #4B512F",
"2	c #829B29",
"3	c #A3C725",
"4	c #5F6D2F",
"5	c #7F9829",
"6	c #515A35",
"7	c #758B2A",
"8	c #9BBC27",
"9	c #9EC026",
"0	c #87A228",
"a	c #5D6B2D",
"b	c #525A38",
"c	c #5F6940",
"d	c #5E663E",
"e	c #72862E",
"f	c #90AE28",
"g	c #5F6B30",
"h	c #6D802C",
"i	c #6B7D2F",
"j	c #79902B",
"k	c #9FC126",
"l	c #697930",
"m	c #444A30",
"n	c #8CA828",
"o	c #73862C",
"p	c #4A5033",
"q	c #647235",
"                ",
"       .+       ",
"       @#$      ",
"        %&*     ",
"        =-;>    ",
"    ,')!~{]^/   ",
"    (___:]]]<[  ",
"    }]]]]]]]]|1 ",
"    2]]]]]]]]34 ",
"    <]]]]]]]]56 ",
"    78889]]]0a  ",
"    bccde3]fg   ",
"        h]&i    ",
"        jkl     ",
"       mno      ",
"       pq       "};
