/* XPM */
static const char * stop_xpm[] = {
"16 16 30 1",
" 	c None",
".	c #3A3C34",
"+	c #3B3D31",
"@	c #3C3F32",
"#	c #393B32",
"$	c #5C692D",
"%	c #89A429",
"&	c #7E962A",
"*	c #4F5538",
"=	c #444931",
"-	c #7A912A",
";	c #616F2C",
">	c #697A2C",
",	c #A4C826",
"'	c #99B927",
")	c #51593A",
"!	c #424730",
"~	c #94B327",
"{	c #A4C726",
"]	c #70842B",
"^	c #5D6B2D",
"/	c #8BA728",
"(	c #809929",
"_	c #7D942A",
":	c #62712C",
"<	c #40413A",
"[	c #46493B",
"}	c #45483B",
"|	c #474A3B",
"1	c #41423A",
"                ",
"  .+++@   @+++# ",
"  $%%%&* =-%%%; ",
"  >,,,') !~,,{] ",
"  >,,,') !~,,{] ",
"  >,,,') !~,,{] ",
"  >,,,') !~,,{] ",
"  >,,,') !~,,{] ",
"  >,,,') !~,,{] ",
"  >,,,') !~,,{] ",
"  >,,,') !~,,{] ",
"  >,,,') !~,,{] ",
"  >,,,') !~,,{] ",
"  >,,,') !~,,{] ",
"  ^///(* =_///: ",
"  <[[[}   |[[[1 "};
