/* XPM */
static const char *topView_xpm[]={
"16 16 226 2",
"bu c #000002",
"aX c #000100",
"bx c #000102",
"by c #000202",
"bn c #000302",
"bz c #000505",
"#x c #001b48",
"aU c #010000",
"bo c #010300",
"bd c #010a05",
"bh c #020200",
"#n c #020f2f",
"aS c #030000",
"#O c #030e06",
"bs c #040406",
"#2 c #04050a",
"a4 c #050400",
"bv c #050608",
"bt c #050706",
"a6 c #060700",
"a8 c #060902",
"aC c #07000a",
"aF c #070508",
"aP c #07060c",
"az c #080412",
"#F c #081a28",
"aE c #0a030a",
"aB c #0a040e",
"bw c #0a0e0f",
"bA c #0b1111",
"au c #0c0a18",
"aK c #0d0917",
"aH c #0e0c0d",
"#T c #0f1813",
"al c #100c0b",
"aL c #100f1d",
"ag c #101115",
"aI c #130f0e",
"aG c #141213",
"aJ c #161211",
"at c #161213",
"af c #171518",
"#N c #191d26",
"#3 c #191f1b",
"aa c #1a130b",
"#8 c #1a1b15",
"#Y c #1a1b16",
"#J c #1a2632",
"#D c #1a272d",
"aq c #1b120d",
"aA c #1b1823",
"aD c #1c151d",
"#m c #1d2635",
".h c #1e4b75",
".D c #203749",
"#C c #292f3b",
".9 c #293545",
".T c #293949",
".d c #29435c",
"#u c #29477b",
".W c #2a5373",
".f c #2b5175",
".s c #2c4e6a",
".g c #2c567e",
".k c #2e5076",
".j c #2e537f",
"#r c #304c7c",
"#w c #304e82",
".H c #305d7a",
"## c #324973",
"#q c #324a78",
"#v c #325084",
"#p c #354a75",
".i c #35608d",
"#s c #395789",
".e c #395a79",
"#j c #3a5479",
"#t c #3a588c",
".l c #3a5978",
".R c #3b536f",
".C c #3b576f",
".m c #3e5a72",
".6 c #405570",
"#o c #44567c",
".n c #445b6b",
"#d c #4672b1",
"#i c #4872ac",
"#f c #4c7bbf",
"#h c #4d7ec3",
".2 c #4f95d3",
"#g c #5182c7",
".3 c #5299d7",
".4 c #5692c8",
"#e c #5888ca",
".5 c #5c7ea3",
".0 c #65a6de",
".O c #69a8dd",
".N c #6db8f1",
".P c #6f96bf",
"#c c #729ad7",
".Q c #758ead",
".M c #75bef5",
".1 c #77bcf7",
".L c #77bdf1",
".Z c #7db9ed",
".B c #7f9ebd",
"#b c #7fa2da",
"#y c #8497b5",
".7 c #8799b1",
".S c #879bb3",
"aT c #8a8683",
".A c #8badd3",
".K c #8bcbfb",
"bf c #8e8d89",
"aM c #8f8f9b",
"bB c #8f9190",
"#k c #8fa1b9",
"#a c #92b1e0",
"bi c #939592",
"a9 c #939892",
"a5 c #989793",
".y c #99ceff",
".Y c #9ad3ff",
".x c #9bd7ff",
"bp c #9d9d9b",
".X c #a0d1f9",
".w c #a0d8ff",
".z c #a3ccfa",
".I c #a5dbff",
"aY c #a6aaa9",
".v c #ace1ff",
".J c #aee9ff",
".u c #b2e2ff",
".t c #c8f0ff",
".G c #ddffff",
".U c #e1f7ff",
".r c #e3feff",
".E c #e5f8fc",
".V c #e6ffff",
"#l c #e7f6ff",
"#S c #e9f4f0",
"#E c #e9faff",
".F c #eaffff",
"#L c #ebf4ff",
".8 c #ebfaff",
".q c #ebfeff",
"#H c #ecfaff",
"aN c #ededf9",
"ac c #edf0f7",
"bb c #edf6f1",
".c c #eeffff",
"#0 c #eff5ff",
"#K c #effbff",
"#z c #effeff",
"bD c #f0f2ef",
"#B c #f0f9ff",
"bc c #f0fbf7",
"#A c #f0fdff",
"#G c #f0ffff",
"av c #f1effd",
"bl c #f1f7f5",
".p c #f1feff",
"#. c #f1ffff",
"ay c #f2f0fe",
"as c #f2f2f4",
"#4 c #f2f8f4",
"ak c #f3f1f2",
"#U c #f3f8f1",
"b# c #f3f9f5",
"bk c #f4f8f7",
"b. c #f4f9f3",
"#6 c #f4f9f5",
"a1 c #f4fafa",
"ba c #f4fdf8",
"#Q c #f4fffb",
".b c #f4ffff",
"aQ c #f5f4f2",
"#W c #f5f7ec",
"aW c #f5f7f6",
"#P c #f5fffa",
"#I c #f5ffff",
"bq c #f6f8f5",
"a0 c #f6fcfc",
".o c #f6feff",
"#R c #f6fffd",
".a c #f6ffff",
"bg c #f7f8f3",
"am c #f8f3f0",
"#9 c #f8f4e9",
"aV c #f8f8f6",
"Qt c #f8f9fb",
"ah c #f8f9fd",
"be c #f8faf7",
".# c #f8fdff",
"aZ c #f8fefe",
"bm c #f8ffff",
"bF c #f9fbf8",
"a7 c #f9fcf5",
"#M c #f9ffff",
"aO c #faf8ff",
"bE c #fafcf9",
"br c #fbfbf9",
"#1 c #fbfeff",
"#Z c #fbffff",
"aw c #fcfaff",
"ai c #fcfdff",
"#5 c #fcfffd",
"bj c #fcffff",
"ar c #fdfbfc",
"ab c #fdfdff",
"a# c #fef6e9",
"aR c #fefaf9",
"ad c #fefeff",
"#V c #fefff8",
"#7 c #fefffb",
"bC c #fefffd",
"ap c #fff6f0",
"ao c #fff6f1",
"an c #fffdfa",
"ax c #fffdff",
"ae c #fffeff",
"a. c #fffff3",
"#X c #fffff6",
"a3 c #fffffb",
"a2 c #fffffd",
"aj c #ffffff",
"Qt.#.a.b.c.d.e.f.g.h.i.j.k.l.m.n",
".o.p.q.r.s.t.u.v.w.x.y.z.A.B.C.D",
".E.F.G.H.I.J.K.L.M.N.O.P.Q.R.S.T",
".U.V.W.X.Y.Z.0.1.2.3.4.5.6.7.8.9",
"#.###a#b#c#d#e#f#g#h#i#j#k#l.b#m",
"#n#o#p#q#r#s#t#u#v#w#x#y#z#A#B#C",
"#D.b#E#.#.#F#G#G#H#I#J#K#I#L#M#N",
"#O#P#Q#R#S#T#U#V#W#X#Y#Z#0#Z#1#2",
"#3#4#5#6#7#8#X#9a.a#aaabacadaeaf",
"agahaiajakalamanaoapaqaraeasaeat",
"auavawaxayazaAaBaCaDaEaFaGaHaIaJ",
"aKaxaxayaLaMaNadaOaxaPaeaQaRaSaT",
"aUaVaWaXaYaZ#Za0#Za1aXa2a3a4a5a3",
"a6a7a8a9b.b#babb#PbcbdbeaUbfbga3",
"bhaXbibjbkbl#M#M#Mbmbnbobpa2bqbr",
"bsaXbtbubvbwbxbybzbnbAbBbCbDbEbF"};
