/* XPM */ 
static const char * anchor_xpm[] = {
"16 16 48 1",
" 	c None",
"!	c black",
"#	c #2F2F98",
"$	c #090985",
"%	c #CBCBE5",
"&	c #C5C5E2",
"'	c #050583",
"(	c #000072",
")	c #7F7FBF",
"*	c #8181C0",
"+	c #00006F",
",	c #000066",
"-	c #3B3B9E",
".	c #313199",
"0	c #252593",
"1	c #15158B",
"2	c #070784",
"3	c #B7B7DB",
"4	c #7979BC",
"5	c #39399D",
"6	c #00007C",
"7	c #7B7BBD",
"8	c #8787C3",
"9	c #CDCDE6",
":	c #4141A0",
";	c #000075",
"<	c #4343A1",
"=	c #1D1D8F",
">	c #9191C8",
"?	c #1B1B8E",
"@	c #00006D",
"A	c #8F8FC7",
"B	c #A5A5D2",
"C	c #19198D",
"D	c #000067",
"E	c #A9A9D4",
"F	c #292995",
"G	c #232392",
"H	c #B3B3D9",
"I	c #7171B8",
"J	c #00006B",
"K	c #7777BB",
"L	c #00006C",
"M	c #8585C2",
"N	c #BDBDDE",
"O	c #33339A",
"P	c #000069",
"Q	c #000054",
"       ##       ",
"      $%&'      ",
"      ()*+      ",
"       ,,       ",
"       --       ",
"    ........    ",
"       00       ",
"       11       ",
"       22       ",
" 345   66   573 ",
" 89:   ;;   <9* ",
" =>?   @@   =A1 ",
"  #BC  DD  CEF  ",
"   GHI?J@?KH=   ",
"    L5MNNMOP    ",
"      QQQQ      "};