/* XPM */ 
static const char * camera_xpm[] = {
"16 16 99 2",
"  	c None",
"! 	c black",
"# 	c #9A9A9A",
"$ 	c #A1A1A1",
"% 	c #B0B0B0",
"& 	c white",
"' 	c #AEAEAE",
"( 	c #969696",
") 	c #989898",
"* 	c #999999",
"+ 	c #848484",
", 	c #7B7B7B",
"- 	c #858585",
". 	c #AFAFAF",
"0 	c #F5F5F5",
"1 	c #C4C4C4",
"2 	c #6F6F6F",
"3 	c #D5D5D5",
"4 	c #9E9E9E",
"5 	c #838383",
"6 	c #CACACA",
"7 	c #E8E8E8",
"8 	c #F4F4F4",
"9 	c #CECECE",
": 	c #919191",
"; 	c #777777",
"< 	c #6A6A6A",
"= 	c #434343",
"> 	c #7F7F7F",
"? 	c #868686",
"@ 	c #E6E8EA",
"A 	c #BAD3ED",
"B 	c #9EC4EB",
"C 	c #88B6E6",
"D 	c #A5C5E7",
"E 	c #E5E7E9",
"F 	c #9F9F9F",
"G 	c #909090",
"H 	c #8D8D8D",
"I 	c #707070",
"J 	c #505050",
"K 	c #333333",
"L 	c #696969",
"M 	c #C8C8C8",
"N 	c #B4CEE9",
"O 	c #ABDAF3",
"P 	c #97C9ED",
"Q 	c #7BB1E5",
"R 	c #6BA3E0",
"S 	c #9DBEE2",
"T 	c #797979",
"U 	c #8A8A8A",
"V 	c #888888",
"W 	c #7A7A7A",
"X 	c #585858",
"Y 	c #343434",
"Z 	c #6B6B6B",
"[ 	c #DEDEDE",
"] 	c #86BBE7",
"^ 	c #8DC5EB",
"_ 	c #82BBE7",
"` 	c #6EA7E0",
"a 	c #649DDD",
"b 	c #689FDD",
"c 	c #6D6D6D",
"d 	c #979797",
"e 	c #7C7C7C",
"f 	c #5A5A5A",
"g 	c #353535",
"h 	c #666666",
"i 	c #D4D4D4",
"j 	c #68A1DB",
"k 	c #69A5DE",
"l 	c #649FDC",
"m 	c #5B95D8",
"n 	c #5F97D7",
"o 	c #686868",
"p 	c #7E7E7E",
"q 	c #606060",
"r 	c #B1B1B1",
"s 	c #7EA2CC",
"t 	c #528DD4",
"u 	c #787878",
"v 	c #6E6E6E",
"w 	c #515151",
"x 	c #5B5B5B",
"y 	c #727272",
"z 	c #B6B8BB",
"{ 	c #759AC7",
"| 	c #4F89D0",
"} 	c #779BC7",
"~ 	c #747474",
" !	c #898989",
"!!	c #464646",
"#!	c #313131",
"$!	c #595959",
"%!	c #9D9D9D",
"&!	c #676767",
"'!	c #5E5E5E",
"                                ",
"                                ",
"              # $ $ $ $ #       ",
"            # % & & & & ' #     ",
"  # ( ) * # # ' + , , - . # #   ",
"# . 0 1 2 3 4 5 6 7 7 6 + 8 9 # ",
": : ; < = > ? @ A B C D E ? F G ",
"H ) I J K L M N O P Q R S M T U ",
"V ( W X Y Z [ ] ^ _ ` a b [ c + ",
"5 d e f g h i j k l m m n i o p ",
"p ( W X Y q r s t t t t s r c T ",
"u : v w Y x y z { | | } z y T ~ ",
"y  !X !!#!$!f L %!' ' %!L f 5 I ",
"  2 2 2 v c c &!'!$!$!'!&!c c   ",
"                                ",
"                                "};