/* XPM */ 
static const char * clock_xpm[] = {
"16 16 125 2",
"  	c None",
"! 	c black",
"# 	c #A5BC84",
"$ 	c #83AA59",
"% 	c #87AC5F",
"& 	c #B0C890",
"' 	c #C6D7AB",
"( 	c #DAE5C3",
") 	c #DBE6C5",
"* 	c #C7D8AC",
"+ 	c #B2CA93",
", 	c #88AD60",
"- 	c #9AB876",
". 	c #DBE6C4",
"0 	c #B5CA90",
"1 	c #98B66E",
"2 	c #87AA5C",
"3 	c #86A95B",
"4 	c #97B56D",
"5 	c #B1C88C",
"6 	c #DCE6C4",
"7 	c #9FBB7C",
"8 	c #99B575",
"9 	c #CEDCB1",
": 	c #8EAE63",
"; 	c #A8C08C",
"< 	c #D1DEC3",
"= 	c #ECF1E6",
"> 	c #EEF2E8",
"? 	c #D3DFC5",
"@ 	c #ADC493",
"A 	c #8CAC60",
"B 	c #CBDBAD",
"C 	c #9CB879",
"D 	c #7B9F52",
"E 	c #C9D8AC",
"F 	c #83A458",
"G 	c #B9CBA3",
"H 	c white",
"I 	c #EAEAEA",
"J 	c #BACDA5",
"K 	c #80A255",
"L 	c #CAD8AB",
"M 	c #7FA157",
"N 	c #98B36A",
"O 	c #A5BC8A",
"P 	c #C8C8C8",
"Q 	c #5B5B5B",
"R 	c #F2F2F2",
"S 	c #B1C599",
"T 	c #92AE64",
"U 	c #A4BC83",
"V 	c #698C3D",
"W 	c #ADC288",
"X 	c #7D9C52",
"Y 	c #DAE3CF",
"Z 	c #D7D7D7",
"[ 	c #E5EBDD",
"] 	c #78984D",
"^ 	c #AFC48A",
"_ 	c #648637",
"` 	c #A4BE76",
"a 	c #6C8D40",
"b 	c #F2F5EF",
"c 	c #FBFCFA",
"d 	c #66883A",
"e 	c #A2BD75",
"f 	c #5E7F31",
"g 	c #91AF5F",
"h 	c #67863C",
"i 	c #F2F4EE",
"j 	c #BCBCBC",
"k 	c #5D5D5D",
"l 	c #E4E4E4",
"m 	c #618134",
"n 	c #92B060",
"o 	c #58782B",
"p 	c #82A151",
"q 	c #728E4A",
"r 	c #D8DFCD",
"s 	c #5F5F5F",
"t 	c #F9F9F9",
"u 	c #E2E7DA",
"v 	c #6C8943",
"w 	c #83A351",
"x 	c #719143",
"y 	c #8EA669",
"z 	c #9AAC7F",
"{ 	c #A4B48C",
"| 	c #8AA366",
"} 	c #739243",
"~ 	c #557328",
" !	c #93AF68",
"!!	c #627E38",
"#!	c #A9B893",
"$!	c #ADBB98",
"%!	c #5E7A33",
"&!	c #96B26E",
"'!	c #557327",
"(!	c #597827",
")!	c #A8BE88",
"*!	c #5E7833",
"+!	c #98A87D",
",!	c #DFE4D6",
"-!	c #E3E7DC",
".!	c #9EAD85",
"0!	c #59742D",
"1!	c #A9BD89",
"2!	c #5A7A29",
"3!	c #547423",
"4!	c #A7BD88",
"5!	c #899F67",
"6!	c #59742E",
"7!	c #436014",
"8!	c #56712A",
"9!	c #859B62",
":!	c #AABF8B",
";!	c #567725",
"<!	c #67853A",
"=!	c #9DB47C",
">!	c #BCCEA4",
"?!	c #A1B781",
"@!	c #6A883E",
"A!	c #446214",
"B!	c #3C570C",
"          # # $ $ # #           ",
"      # % & ' ( ) * + , #       ",
"    # - . 0 1 2 3 4 5 6 7 #     ",
"  # 8 9 : ; < = > ? @ A B C #   ",
"  D E F G H H H H H I J K L M   ",
"# # N O H H H H H P Q R S T U # ",
"V W X Y H H H H P Q Z H [ ] ^ V ",
"_ ` a b H H H P Q Z H H c d e _ ",
"f g h i H H H j k l H H c m n f ",
"o p q r H H H H j s t H u v w o ",
"# x y z H H H H H I H H { | } # ",
"  ~  !!!#!H H H H H H $!%!&!'!  ",
"  # (!)!*!+!,!H H -!.!0!1!2!#   ",
"    # 3!4!5!6!7!7!8!9!:!;!#     ",
"      # 7!<!=!>!>!?!@!A!#       ",
"          # B!B!B!B!#           "};