/* XPM */ 
static const char * fixed_xpm[] = {
"16 16 20 1",
" 	c None",
"!	c white",
"#	c #E2E2E2",
"$	c black",
"%	c #FFC4C4",
"&	c #FF6464",
"'	c #808080",
"(	c #FF0000",
")	c #FFE10F",
"*	c #DD0000",
"+	c #827200",
",	c #FFF8B3",
"-	c #FFEF80",
".	c #C0C0C0",
"0	c #E9E9E9",
"1	c #F0D200",
"2	c #B5B5B5",
"3	c #BEBEBE",
"4	c #F8F8F8",
"5	c #958300",
"!!!!!!!!!!!!!!!!",
"!!!!!!!!!!#$$#!!",
"!!!!!!##!#$%&$#!",
"!!!!#'$$'$&((($!",
"!!#$$$))$$(((*$!",
"!!$+,----$$(*$#!",
"!#$,--))$$$$$#!!",
"!'$--)))$))$.!!0",
"!$)-)))$$))1$.22",
"!$)-))$$)))1$'22",
"!'$-))))))1$$220",
"!3$)))))))1$'200",
"!#$$)))111$$'044",
"!!3$$$115$$'.04!",
"!!!#.$$$$''.044!",
"!!!!!!!!!!!!!!!!"};