/* XPM */ 
static const char * object_xpm[] = {
"16 16 96 2",
"  	c None",
"! 	c white",
"# 	c #FEFEFE",
"$ 	c #FDFDFD",
"% 	c #F8F8F8",
"& 	c #F6F6F6",
"' 	c #EDEDED",
"( 	c #D2D2D2",
") 	c #F7F7F7",
"* 	c #ECECEC",
"+ 	c #E85640",
", 	c #F22505",
"- 	c #F32202",
". 	c #F22809",
"0 	c #E85039",
"1 	c #FCFCFC",
"2 	c #EB462D",
"3 	c #F1290B",
"4 	c #E55944",
"5 	c #F2533A",
"6 	c #FC7864",
"7 	c #FCAFA3",
"8 	c #F98877",
"9 	c #F54429",
": 	c #F6573F",
"; 	c #FAA79A",
"< 	c #F9B0A4",
"= 	c #EEEEEE",
"> 	c #D4D4D4",
"? 	c #E8391D",
"@ 	c #FF2A09",
"A 	c #FF573D",
"B 	c #FD9382",
"C 	c #FCA193",
"D 	c #F65D45",
"E 	c #F32506",
"F 	c #F6533B",
"G 	c #F9A497",
"H 	c #F59485",
"I 	c #EC5139",
"J 	c #EA1F00",
"K 	c #8D736F",
"L 	c #CACACA",
"M 	c #E33319",
"N 	c #FF391A",
"O 	c #FC735D",
"P 	c #F26B57",
"Q 	c #F0725E",
"R 	c #E9361A",
"S 	c #E71F00",
"T 	c #775D59",
"U 	c #C8C8C8",
"V 	c #DD351B",
"W 	c #FD7B67",
"X 	c #735955",
"Y 	c #DB351B",
"Z 	c #DA361C",
"[ 	c #EB2000",
"] 	c #D8361D",
"^ 	c #A44839",
"_ 	c #FF2908",
"` 	c #6B6362",
"a 	c #932E1F",
"b 	c #F62807",
"c 	c #E81F00",
"d 	c #D72206",
"e 	c #80382C",
"f 	c #7E7E7E",
"g 	c #D5D5D5",
"h 	c #888888",
"i 	c #5B5B5B",
"j 	c #413C3B",
"k 	c #9D2B1A",
"l 	c #F92909",
"m 	c #CC2309",
"n 	c #68352E",
"o 	c #5A5A5A",
"p 	c #7D7D7D",
"q 	c #B8B8B8",
"r 	c #F2F2F2",
"s 	c #D0D0D0",
"t 	c #ADADAD",
"u 	c #646464",
"v 	c #555555",
"w 	c #B62F1A",
"x 	c #F97C68",
"y 	c #BF250D",
"z 	c #533834",
"{ 	c #7B7B7B",
"| 	c #CECECE",
"} 	c #D3D3D3",
"~ 	c #C4C4C4",
" !	c #ABABAB",
"!!	c #6A6262",
"#!	c #656565",
"$!	c #EBEBEB",
"! ! # $ % & ' ( ' & % $ # # ! ! ",
"! $ ) * ( + , - . 0 ( * & % $ ! ",
"1 ( ( 2 - - - - - - - 3 4 ( % # ",
"' 5 6 7 8 9 - - - - - : ; < ( = ",
"> ? @ @ A B C D E F G H I J K > ",
"L M @ @ @ @ N O P Q R S S J T L ",
"U V @ @ @ @ @ W S S S S S J X U ",
"U Y @ @ @ @ @ W S S S S S J X U ",
"U Z @ @ @ @ @ W S S S S S [ X U ",
"U ] @ @ @ @ @ W S S S S S [ X U ",
"U ^ _ @ @ @ @ W S S S S S [ T L ",
"L ` a b @ @ @ W S S S c d e f > ",
"g h i j k l @ W S c m n o p q ' ",
"r s t p u v w x y z o { t | ' 1 ",
"$ ) * } ~  !p !!#!p t | $!) $ ! ",
"! # $ % & * > L L > * ) $ # ! ! "};