/* XPM */ 
static const char * robot_xpm[] = {
"16 16 40 1",
" 	c None",
"!	c white",
"#	c #FBFBFB",
"$	c #202020",
"%	c #3C3C3C",
"&	c black",
"'	c #E4E4E4",
"(	c #F3F3F3",
")	c #FDFDFD",
"*	c #FFF7BF",
"+	c #FFE220",
",	c #CFCFCF",
"-	c #FFF39F",
".	c #FFE958",
"0	c #FFDE00",
"1	c #9D9D9D",
"2	c #F9F9F9",
"3	c #858585",
"4	c #DADADA",
"5	c #E2E2E2",
"6	c #FFE63C",
"7	c #FFE640",
"8	c #9E9E9E",
"9	c #898989",
":	c #DCDCDC",
";	c #8B8B8B",
"<	c #919191",
"=	c #9A9A9A",
">	c #DEDEDE",
"?	c #E8E8E8",
"@	c #707070",
"A	c #B0B0B0",
"B	c #D7D7D7",
"C	c #626262",
"D	c #A5A5A5",
"E	c #F1F1F1",
"F	c #757575",
"G	c #CCCCCC",
"H	c #838383",
"I	c #565656",
"!!!!!#$%&'(#!!!!",
"!!!!)$**+&,()!!!",
"!!!!)$-.0&1')!!!",
"!!!)2&+00&342)!!",
"!!#$$$$0$$&&5(#!",
"!)$-**-6--+0&,()",
"!)&++7+07+00&8')",
"!#&0$-++-+&0&9:#",
"!#&0$*++*+&0&;:#",
"!#&0$*++*+&0&<:#",
"!#&0$*+$*+&0&=>#",
"!)?&$*+$*+&&@A?)",
"!)(B$*+$*+&CDB()",
"!!)E$*+$*+&FGE)!",
"!!!#$-+$-+&H4#!!",
"!!!)'$&&$&I8')!!"};